<?xml version="1.0" standalone="no"?>
<!DOCTYPE svg PUBLIC "-//W3C//DTD SVG 20010904//EN"
 "http://www.w3.org/TR/2001/REC-SVG-20010904/DTD/svg10.dtd">
<svg version="1.0" xmlns="http://www.w3.org/2000/svg"
 width="551.000000pt" height="357.000000pt" viewBox="0 0 551.000000 357.000000"
 preserveAspectRatio="xMidYMid meet">

<g transform="translate(0.000000,357.000000) scale(0.100000,-0.100000)"
fill="#000000" stroke="none">
<path d="M2560 2714 c-401 -51 -739 -201 -1044 -463 -47 -40 -86 -76 -86 -80
0 -3 40 -46 89 -95 l90 -89 58 53 c619 566 1557 566 2176 0 l58 -53 90 89 c49
49 89 92 89 95 0 11 -166 150 -258 216 -116 83 -339 194 -489 243 -192 62
-316 82 -543 85 -107 2 -211 1 -230 -1z"/>
<path d="M2655 2184 c-309 -31 -583 -151 -805 -352 l-45 -41 94 -94 94 -95 59
49 c142 118 284 193 446 236 135 36 362 38 495 5 168 -42 311 -114 448 -228
l76 -63 94 95 94 95 -45 41 c-188 170 -432 292 -667 332 -93 16 -271 27 -338
20z"/>
<path d="M2610 1625 c-143 -30 -272 -92 -366 -179 l-49 -45 86 -86 86 -87 77
56 c102 73 188 101 311 101 123 0 209 -28 311 -101 l77 -56 86 87 86 86 -49
45 c-167 153 -431 225 -656 179z"/>
<path d="M2690 1101 c-41 -13 -84 -38 -102 -58 -17 -18 -14 -23 75 -111 l92
-92 93 93 93 93 -23 21 c-54 49 -164 75 -228 54z"/>
</g>
</svg>
